<svg width="1600" height="1600" viewBox="0 0 1600 1600" fill="none" xmlns="http://www.w3.org/2000/svg">
<g clip-path="url(#clip0_55_34)">
<path d="M1062.13 1098C920.497 1472.85 389.197 1293.08 512.373 885M516.874 503.499C516.874 832.498 1141.37 618.5 1092.87 1019.5C999.373 1494.5 385.874 937.499 516.874 503.499Z" stroke="#5B6900" stroke-width="24" stroke-linecap="round"/>
<path d="M859.635 388.771C788.635 254.27 560.636 265.27 523.136 478.77M523.136 478.77C523.136 807.769 1147.63 593.771 1099.14 994.771M523.136 478.77C392.136 912.77 1005.63 1469.77 1099.14 994.771M1099.14 994.771C1005.63 1469.77 392.136 1297.77 523.136 863.771" stroke="#AEC043" stroke-width="32" stroke-linecap="round"/>
</g>
<defs>
<clipPath id="clip0_55_34">
<rect width="636" height="1031" fill="white" transform="translate(482 284.5)"/>
</clipPath>
</defs>
</svg>
